<svg width="101" height="60" viewBox="0 0 101 60" fill="none" xmlns="http://www.w3.org/2000/svg">
<path fill-rule="evenodd" clip-rule="evenodd" d="M72.8224 57.0808C81.84 57.298 91.0553 56.8637 99.6775 59.9431C100.191 60.1247 100.757 59.8602 100.943 59.347C101.124 58.8337 100.86 58.2692 100.346 58.0836C91.5218 54.9332 82.097 55.3279 72.8699 55.1069C72.3243 55.0911 71.8697 55.5253 71.8578 56.0702C71.842 56.615 72.2769 57.065 72.8224 57.0808Z" fill="#242528"/>
<path fill-rule="evenodd" clip-rule="evenodd" d="M72.0128 44.006C74.8237 41.4233 77.8915 39.4884 81.5997 38.5295C82.1295 38.3929 82.4457 37.854 82.3113 37.3265C82.1729 36.7991 81.6313 36.4821 81.1055 36.6187C77.0731 37.6609 73.7325 39.7462 70.6766 42.5528C70.2734 42.9216 70.2457 43.5465 70.6173 43.9476C70.985 44.3484 71.6136 44.3748 72.0128 44.006Z" fill="#242528"/>
<path fill-rule="evenodd" clip-rule="evenodd" d="M64.1916 15.8087C65.4804 11.3969 68.0185 7.94559 71.9086 5.45324C72.3672 5.15912 72.5016 4.54799 72.2051 4.08963C71.9125 3.63127 71.2997 3.49782 70.8411 3.79194C66.5359 6.55156 63.7212 10.3708 62.294 15.2556C62.1398 15.7783 62.4443 16.3271 62.9661 16.4795C63.4919 16.6323 64.0414 16.3314 64.1916 15.8087Z" fill="#242528"/>
<path fill-rule="evenodd" clip-rule="evenodd" d="M19.7766 9.82115C19.0096 10.7225 18.3217 11.6937 17.7366 12.7276C17.4757 13.188 17.0171 14.1663 16.946 15.0052C16.8669 15.899 17.1713 16.6531 17.954 17.0503C18.9938 17.5769 19.824 17.522 20.4645 17.2034C21.0812 16.8975 21.5635 16.2962 21.8679 15.49C22.449 13.9491 22.362 11.5942 22.0576 10.2503C22.876 9.40702 23.7734 8.64229 24.734 7.96245C31.8896 2.8992 42.3858 4.76619 50.4624 12.3368C53.2891 14.9874 54.649 20.554 55.3567 26.5601C56.4597 35.9116 55.8311 46.3563 55.7441 49.4163C55.7243 50.172 55.7955 50.6205 55.835 50.7101C56.0208 51.1507 56.349 51.2652 56.5783 51.3086C56.9103 51.3678 57.1752 51.3046 57.3887 51.1941C57.6773 51.0425 57.9145 50.7756 58.0252 50.3638C58.0845 50.1364 58.1003 49.8198 58.0924 49.4823C58.0845 49.2482 58.037 48.9923 58.0845 48.8245C58.3928 47.7499 58.7644 46.7005 59.1281 45.6437C60.3418 42.0909 61.9113 38.7616 63.6548 35.4363C69.1934 24.87 74.5501 13.7055 83.631 5.65527C84.0382 5.29403 84.0777 4.66947 83.714 4.26204C83.3543 3.85461 82.7296 3.81749 82.3185 4.17913C73.0558 12.3885 67.5527 23.7452 61.9034 34.5207C60.4209 37.3494 59.0609 40.1821 57.9303 43.145C58.0449 37.9037 58.0014 30.6486 57.0408 24.2292C56.1868 18.5201 54.562 13.4746 51.8145 10.8978C42.9669 2.60429 31.427 0.805217 23.5915 6.35209C22.7534 6.94586 21.9549 7.59886 21.2116 8.30712C17.112 0.914586 8.33557 -2.04837 0.5791 1.48741C0.0809787 1.71363 -0.136451 2.29951 0.0888893 2.79498C0.318183 3.29045 0.903257 3.50917 1.40138 3.28296C8.39089 0.0969601 16.3174 2.94026 19.7766 9.82115ZM20.3498 12.2961C20.0296 12.7478 19.7331 13.216 19.4563 13.7C19.3101 13.9598 19.057 14.4592 18.9503 14.948C18.9266 15.0625 18.9226 15.2417 18.9226 15.3246C19.1954 15.4588 19.4089 15.5236 19.5828 15.4363C19.8002 15.3289 19.911 15.0763 20.0177 14.794C20.2865 14.0857 20.3735 13.1469 20.3498 12.2961Z" fill="#242528"/>
</svg>
