<svg width="485" height="99" viewBox="0 0 485 99" fill="none" xmlns="http://www.w3.org/2000/svg">
<path d="M50.4778 79.3757C48.652 79.3757 47.2106 78.8388 46.1536 77.7648C45.0966 76.6908 44.6642 75.2751 44.8563 73.5177C45.0485 71.7604 45.9614 69.2707 47.595 66.0488C49.2286 62.7293 51.1985 59.0192 53.5047 54.9186C55.9071 50.7204 58.4055 46.4246 61 42.0311C63.6906 37.5399 66.1891 33.2441 68.4953 29.1435C70.8015 24.9453 72.6754 21.2352 74.1168 18.0133C75.5582 14.7914 76.2789 12.3018 76.2789 10.5444C76.2789 9.76331 75.9425 9.03107 75.2699 8.34763C74.6933 7.56657 74.0207 7.17604 73.2519 7.17604C71.8105 7.17604 70.0328 7.71302 67.9187 8.78698C65.8047 9.76332 64.1711 10.6908 63.018 11.5695C59.1742 14.4009 55.0422 17.818 50.6219 21.821C46.2017 25.824 41.6853 30.1686 37.0728 34.855C32.5564 39.5414 28.1842 44.3743 23.9561 49.3535C19.728 54.3328 15.8842 59.2145 12.4249 63.9985C9.0616 68.7825 6.32294 73.2737 4.20889 77.4719C4.20889 77.4719 3.96865 77.4719 3.48819 77.4719C3.10381 77.5695 2.67139 77.6183 2.19093 77.6183C1.51827 77.6183 0.941714 77.5207 0.461248 77.3254C0.0768746 77.2278 -0.0672653 76.8861 0.028828 76.3003C3.48819 67.0251 7.71629 57.6035 12.7131 48.0355C17.8061 38.3698 22.8029 29.2899 27.7037 20.7959C29.6256 17.6716 31.5474 14.4985 33.4693 11.2766C35.3912 7.9571 37.4572 4.83284 39.6673 1.90385C40.1478 1.31805 40.8685 0.878701 41.8294 0.5858C42.8864 0.195267 43.9435 0 45.0005 0C46.3458 0 47.547 0.244083 48.604 0.732248C49.661 1.22041 50.1895 2.00148 50.1895 3.07544C50.1895 3.95414 49.7091 5.02811 48.7481 6.29734C46.9224 8.44527 45.1927 10.6908 43.5591 13.034C42.0216 15.2796 40.4361 17.574 38.8025 19.9172C35.9197 24.213 33.0849 28.5577 30.2982 32.9512C27.5115 37.3447 24.7248 41.7382 21.9381 46.1317C24.1482 43.6908 26.9349 40.6642 30.2982 37.0518C33.7576 33.3417 37.5052 29.534 41.5411 25.6287C45.6731 21.6257 49.9012 17.9157 54.2254 14.4985C58.6457 10.9837 62.8738 8.15237 66.9098 6.00444C71.0418 3.75888 74.7894 2.6361 78.1527 2.6361C83.1495 2.6361 85.6479 5.27219 85.6479 10.5444C85.6479 13.2781 85.0233 16.0607 83.7741 18.892C82.5249 21.6257 81.2277 24.1642 79.8824 26.5074C79.1136 27.7766 77.9124 29.7781 76.2789 32.5118C74.7414 35.1479 72.9636 38.2234 70.9457 41.7382C68.9277 45.1553 66.8617 48.7189 64.7477 52.429C62.7297 56.139 60.8078 59.7027 58.9821 63.1198C57.2524 66.4393 55.811 69.3195 54.6579 71.7604C53.6008 74.2012 53.0723 75.8609 53.0723 76.7396C53.0723 77.0325 53.1684 77.2766 53.3606 77.4719C52.784 77.7648 52.3036 78.1553 51.9192 78.6435C51.5348 79.1317 51.0544 79.3757 50.4778 79.3757Z" fill="white"/>
<path d="M95.9359 31.4867C94.975 31.4867 94.1582 31.145 93.4856 30.4615C92.909 29.6805 92.6207 28.8018 92.6207 27.8254C92.6207 26.1657 93.3414 24.6035 94.7828 23.1391C96.3203 21.5769 97.9058 20.7959 99.5394 20.7959C100.5 20.7959 101.221 21.1376 101.702 21.821C102.278 22.4068 102.566 23.1879 102.566 24.1642C102.566 25.7263 101.846 27.3373 100.404 28.997C99.059 30.6568 97.5695 31.4867 95.9359 31.4867ZM74.8915 76.1538C73.0657 76.1538 71.5282 75.6169 70.279 74.5429C69.1259 73.4689 68.5494 72.0044 68.5494 70.1494C68.5494 68.6849 69.0298 66.6834 69.9907 64.145C70.9517 61.6065 72.1528 58.8728 73.5942 55.9438C75.0356 53.0148 76.429 50.3299 77.7743 47.889C79.2157 45.3506 80.3688 43.4467 81.2337 42.1775C82.0024 40.9083 82.8672 39.6391 83.8282 38.3698C84.7891 37.1006 86.0864 36.466 87.72 36.466C88.2004 36.466 89.0653 36.6612 90.3145 37.0518C91.6598 37.4423 92.909 37.9305 94.0621 38.5163C95.3113 39.0044 95.9359 39.5414 95.9359 40.1272C94.8789 40.5177 93.5336 41.6405 91.9 43.4956C90.2664 45.253 88.5368 47.3521 86.711 49.7929C84.8852 52.2337 83.1555 54.7722 81.5219 57.4083C79.9845 60.0444 78.6872 62.4852 77.6302 64.7308C76.6692 66.9763 76.1888 68.6849 76.1888 69.8565C76.1888 71.6139 77.0536 72.4926 78.7833 72.4926C80.1286 72.4926 81.7622 71.7604 83.684 70.2959C85.6059 68.8314 87.5758 67.0251 89.5938 64.8772C91.7078 62.7293 93.6777 60.5814 95.5035 58.4334C97.3293 56.1879 98.8668 54.3328 100.116 52.8683C101.365 51.4038 102.086 50.6716 102.278 50.6716C102.662 50.6716 102.855 50.8669 102.855 51.2574C102.855 51.4527 102.374 52.1361 101.413 53.3077C100.452 54.4793 99.2031 55.9438 97.6656 57.7012C96.2242 59.3609 94.6867 61.0695 93.0531 62.8269C91.5156 64.4867 90.1703 65.9512 89.0172 67.2204C87.8641 68.4896 87.0954 69.2707 86.711 69.5636C85.1735 71.0281 83.3477 72.4926 81.2337 73.9571C79.2157 75.4216 77.1017 76.1538 74.8915 76.1538Z" fill="white"/>
<path d="M138.734 76.1538C136.908 76.1538 135.515 75.6169 134.554 74.5429C133.689 73.4689 133.257 72.0533 133.257 70.2959C133.257 68.5385 133.785 66.3417 134.842 63.7056C135.899 60.9719 137.197 58.1405 138.734 55.2115C140.272 52.1849 141.761 49.3535 143.203 46.7175C144.74 44.0814 145.989 41.9822 146.95 40.4201C144.452 41.5917 142.098 43.1538 139.887 45.1065C137.773 47.0592 135.755 49.0118 133.833 50.9645C131.623 53.3077 129.653 55.7973 127.924 58.4334C126.29 61.0695 124.801 63.8033 123.455 66.6346C123.071 67.5133 122.687 68.392 122.302 69.2707C122.014 70.0518 121.63 70.8328 121.149 71.6139C120.765 72.5902 119.708 73.5177 117.978 74.3964C116.344 75.2751 115.047 75.7145 114.086 75.7145C113.029 75.7145 112.501 75.1287 112.501 73.9571C112.501 72.1997 112.933 70.003 113.798 67.3669C114.663 64.6331 115.72 61.8018 116.969 58.8728C118.314 55.9438 119.612 53.1612 120.861 50.5251C122.206 47.889 123.311 45.6923 124.176 43.9349C125.041 42.1775 125.473 41.2012 125.473 41.0059C125.473 40.8106 125.377 40.713 125.185 40.713C124.897 40.713 124.56 40.8595 124.176 41.1524C123.792 41.3476 123.503 41.5429 123.311 41.7382C120.428 43.7885 117.402 46.571 114.23 50.0858C111.155 53.6006 108.225 57.2618 105.438 61.0695C102.747 64.8772 100.489 68.3432 98.6633 71.4675C97.6063 73.3225 96.3571 74.4941 94.9157 74.9822C93.5704 75.3728 91.9368 75.568 90.0149 75.568C90.6876 74.0059 91.4083 72.4926 92.177 71.0281C92.9458 69.5636 93.6665 68.1479 94.3391 66.7811C95.4922 64.4379 96.5493 62.1435 97.5102 59.8979C98.4711 57.5547 99.4321 55.2115 100.393 52.8683C101.162 50.818 101.979 48.426 102.843 45.6923C103.708 42.8609 104.141 40.3713 104.141 38.2234C104.141 37.6376 104.093 37.0518 103.997 36.466C103.9 35.8802 103.708 35.3432 103.42 34.855C103.132 34.5621 102.988 34.4157 102.988 34.4157C102.988 33.8299 103.324 33.537 103.997 33.537C104.573 33.537 105.582 33.8787 107.023 34.5621C108.465 35.2456 109.81 36.0754 111.059 37.0518C112.405 37.9305 113.077 38.7604 113.077 39.5414C113.077 41.0059 112.501 43.105 111.348 45.8388C110.291 48.5725 109.041 51.2574 107.6 53.8935C106.255 56.4319 105.102 58.3358 104.141 59.605C104.045 59.7027 103.9 59.8491 103.708 60.0444C103.612 60.2396 103.564 60.4349 103.564 60.6302L103.708 60.7766C103.9 60.7766 104.669 59.9467 106.014 58.287C107.36 56.5296 109.041 54.3817 111.059 51.8432C113.173 49.3047 115.48 46.7663 117.978 44.2278C120.477 41.5917 122.975 39.4438 125.473 37.784C127.972 36.0266 130.278 35.1479 132.392 35.1479C133.449 35.1479 134.65 35.4408 135.996 36.0266C137.341 36.5148 138.014 37.4423 138.014 38.8092C138.014 39.1997 137.917 39.5902 137.725 39.9808C137.533 40.2737 137.341 40.6154 137.149 41.0059C135.131 43.7396 133.161 46.4734 131.239 49.2071C129.317 51.9408 127.539 54.8698 125.906 57.9941C127.059 56.4319 128.789 54.3817 131.095 51.8432C133.401 49.3047 135.899 46.7663 138.59 44.2278C141.377 41.6894 144.115 39.5414 146.806 37.784C149.497 36.0266 151.851 35.1479 153.869 35.1479C154.926 35.1479 156.127 35.4408 157.472 36.0266C158.818 36.5148 159.49 37.4423 159.49 38.8092C159.49 39.1997 159.394 39.5902 159.202 39.9808C159.01 40.2737 158.818 40.6154 158.626 41.0059C157.569 42.4704 156.079 44.4719 154.157 47.0104C152.331 49.4512 150.41 52.1361 148.392 55.0651C146.47 57.9941 144.788 60.7766 143.347 63.4127C142.001 66.0488 141.329 68.1967 141.329 69.8565C141.329 71.6139 142.194 72.4926 143.923 72.4926C145.365 72.4926 147.046 71.7604 148.968 70.2959C150.89 68.8314 152.86 67.0251 154.878 64.8772C156.992 62.7293 158.962 60.5814 160.788 58.4334C162.613 56.1879 164.103 54.3328 165.256 52.8683C166.505 51.4038 167.274 50.6716 167.562 50.6716C167.851 50.6716 167.995 50.8669 167.995 51.2574C167.995 51.355 167.562 51.9408 166.697 53.0148C165.929 53.9911 165.112 54.9674 164.247 55.9438C163.382 56.9201 162.806 57.5547 162.517 57.8476C161.268 59.3121 159.683 61.1183 157.761 63.2663C155.935 65.3166 153.917 67.318 151.707 69.2707C149.593 71.2234 147.383 72.8831 145.076 74.25C142.866 75.5192 140.752 76.1538 138.734 76.1538Z" fill="white"/>
<path d="M187.726 76.1538C185.9 76.1538 184.363 75.568 183.114 74.3964C181.864 73.2249 181.24 71.6627 181.24 69.7101C181.24 67.6598 181.768 65.3654 182.825 62.8269C183.978 60.1908 184.987 57.9941 185.852 56.2367C184.699 57.7012 183.21 59.5562 181.384 61.8018C179.558 63.9497 177.588 66.0976 175.474 68.2456C173.36 70.3935 171.198 72.1997 168.988 73.6642C166.778 75.0311 164.664 75.7145 162.646 75.7145C160.532 75.7145 158.994 74.9334 158.033 73.3713C157.168 71.8092 156.736 70.1006 156.736 68.2456C156.736 67.074 156.88 65.9024 157.168 64.7308C157.841 62.1923 159.138 59.5562 161.06 56.8225C162.982 53.9911 165.192 51.3062 167.691 48.7677C170.285 46.1317 172.928 43.6908 175.618 41.4453C178.309 39.1997 180.711 37.3447 182.825 35.8802C183.786 35.1967 184.795 34.6109 185.852 34.1228C187.005 33.537 188.206 33.2441 189.456 33.2441C190.993 33.2441 192.387 33.6834 193.636 34.5621C194.981 35.3432 196.182 36.2707 197.239 37.3447C197.528 36.8565 197.72 36.466 197.816 36.1731C198.008 35.8802 198.392 35.7337 198.969 35.7337C199.353 35.7337 200.218 35.8802 201.563 36.1731C203.005 36.466 204.35 36.8077 205.599 37.1982C206.849 37.5888 207.473 37.9793 207.473 38.3698C207.473 38.4675 207.425 38.5163 207.329 38.5163C206.656 39.4926 205.936 40.4689 205.167 41.4453C204.398 42.4216 203.629 43.3979 202.861 44.3743C200.458 47.6938 198.104 51.1598 195.798 54.7722C193.588 58.3846 191.666 62.1435 190.032 66.0488C189.84 66.6346 189.648 67.2692 189.456 67.9527C189.264 68.5385 189.167 69.1731 189.167 69.8565C189.167 71.6139 190.032 72.4926 191.762 72.4926C193.107 72.4926 194.741 71.7604 196.663 70.2959C198.585 68.8314 200.555 67.0251 202.572 64.8772C204.687 62.7293 206.656 60.5814 208.482 58.4334C210.308 56.1879 211.845 54.3328 213.095 52.8683C214.344 51.4038 215.065 50.6716 215.257 50.6716C215.545 50.6716 215.689 50.8669 215.689 51.2574C215.689 51.4527 214.968 52.429 213.527 54.1864C212.086 55.8461 210.356 57.7988 208.338 60.0444C206.32 62.2899 204.494 64.3402 202.861 66.1953C201.227 67.9527 200.17 69.0754 199.69 69.5636C198.152 71.0281 196.326 72.4926 194.212 73.9571C192.098 75.4216 189.936 76.1538 187.726 76.1538ZM164.231 72.3461C165 72.3461 165.769 72.1509 166.537 71.7604C167.402 71.2722 168.123 70.8817 168.7 70.5888C172.447 68.3432 176.003 65.4142 179.366 61.8018C182.729 58.1893 185.852 54.3328 188.735 50.2322C191.618 46.1317 194.212 42.2263 196.519 38.5163C196.326 38.4186 195.99 38.3698 195.51 38.3698C194.549 38.3698 193.54 38.7115 192.483 39.395C187.005 42.2263 181.768 46.0828 176.771 50.9645C171.871 55.7485 167.787 60.8743 164.52 66.3417C164.135 66.9275 163.751 67.6598 163.366 68.5385C163.078 69.3195 162.934 70.1006 162.934 70.8817C162.934 71.858 163.366 72.3461 164.231 72.3461Z" fill="white"/>
<path d="M232.703 79.0828C232.319 79.0828 232.127 78.8876 232.127 78.497C232.127 77.716 232.992 76.0562 234.721 73.5177C236.547 70.9793 238.805 68.0503 241.496 64.7308C244.283 61.4112 247.069 58.0917 249.856 54.7722C252.739 51.4527 255.285 48.5725 257.495 46.1317C259.802 43.5932 261.291 41.9334 261.964 41.1524C259.657 41.4453 257.063 41.9334 254.18 42.6169C251.393 43.3003 248.703 44.2766 246.108 45.5459C243.61 46.8151 241.688 48.5237 240.343 50.6716C239.574 51.7456 239.19 52.966 239.19 54.3328C239.19 55.6997 239.526 56.676 240.199 57.2618C240.967 57.8476 241.352 58.3846 241.352 58.8728C241.352 59.068 241.063 59.1657 240.487 59.1657C238.661 59.1657 237.172 58.2382 236.019 56.3831C234.962 54.4305 234.433 52.6243 234.433 50.9645C234.433 49.8905 234.577 48.9142 234.865 48.0355C235.922 44.716 237.748 42.0799 240.343 40.1272C242.937 38.0769 245.964 36.5636 249.424 35.5873C252.883 34.5133 256.342 33.8299 259.802 33.537C263.357 33.2441 266.576 33.0976 269.459 33.0976C274.168 28.216 279.02 23.3831 284.017 18.5991C289.014 13.8151 294.299 9.51923 299.873 5.71154C301.891 4.34467 304.101 3.2219 306.503 2.3432C308.905 1.4645 311.356 1.02515 313.854 1.02515C316.545 1.02515 318.899 1.70858 320.917 3.07544C322.935 4.44231 323.944 6.63905 323.944 9.66568C323.944 11.9112 323.415 14.1568 322.358 16.4024C321.397 18.5503 320.34 20.5518 319.187 22.4068C318.515 23.4808 317.362 25.3846 315.728 28.1183C314.19 30.8521 312.365 34.0252 310.251 37.6376C308.137 41.25 305.974 45.0577 303.764 49.0606C301.554 52.966 299.488 56.7248 297.566 60.3373C295.741 63.8521 294.251 66.9275 293.098 69.5636C291.945 72.1021 291.368 73.8595 291.368 74.8358C291.368 75.1287 291.416 75.3728 291.512 75.568C290.359 76.1538 289.014 76.4467 287.477 76.4467C285.651 76.4467 284.498 75.9098 284.017 74.8358C283.633 73.7618 283.441 72.395 283.441 70.7352C283.441 69.2707 283.873 67.4157 284.738 65.1701C285.699 62.8269 286.804 60.4349 288.053 57.9941C289.398 55.4556 290.696 53.0636 291.945 50.818C293.29 48.5725 294.395 46.7175 295.26 45.253C294.587 44.2766 293.386 43.4956 291.657 42.9098C290.023 42.2263 288.101 41.6894 285.891 41.2988C283.777 40.9083 281.759 40.6154 279.837 40.4201C277.915 40.2248 276.426 40.1272 275.369 40.1272C273.831 40.1272 272.294 40.176 270.756 40.2737C269.219 40.3713 267.681 40.5177 266.144 40.713C262.492 44.6183 258.889 48.6213 255.333 52.7219C251.778 56.8225 248.318 60.9719 244.955 65.1701C243.322 67.1228 241.688 69.1731 240.054 71.321C238.421 73.4689 236.739 75.5192 235.01 77.4719C234.721 77.7648 234.385 78.1065 234.001 78.497C233.616 78.8876 233.184 79.0828 232.703 79.0828ZM296.413 43.3491C297.086 42.1775 298.095 40.4201 299.44 38.0769C300.882 35.6361 302.419 33 304.053 30.1686C305.782 27.2396 307.416 24.3595 308.953 21.5281C310.491 18.5991 311.788 16.0118 312.845 13.7663C313.998 11.4231 314.671 9.76332 314.863 8.78698C315.344 6.83432 314.959 5.61391 313.71 5.12574C312.461 4.63757 311.356 4.39349 310.395 4.39349C308.857 4.39349 307.176 4.78402 305.35 5.56509C303.524 6.34615 301.987 7.17603 300.737 8.05473C295.741 11.6672 290.936 15.6701 286.323 20.0636C281.711 24.3595 277.291 28.753 273.063 33.2441C274.6 33.3417 276.57 33.5858 278.972 33.9763C281.471 34.2692 283.969 34.8062 286.468 35.5873C289.062 36.2707 291.272 37.247 293.098 38.5163C295.02 39.7855 296.125 41.3965 296.413 43.3491Z" fill="white"/>
<path d="M313.478 80.9867C310.691 80.9867 308.625 79.8639 307.28 77.6183C306.031 75.4704 305.406 73.1272 305.406 70.5888C305.406 70.3935 305.454 70.1006 305.55 69.7101C305.55 69.3195 305.742 69.1243 306.127 69.1243C306.415 69.1243 306.607 69.3195 306.703 69.7101C306.799 70.003 306.896 70.247 306.992 70.4423C307.857 73.3713 309.826 74.8358 312.901 74.8358C314.535 74.8358 315.88 74.2988 316.937 73.2249C317.994 72.1509 318.523 70.7352 318.523 68.9778C318.523 67.0251 318.042 64.9748 317.081 62.8269C316.121 60.679 315.112 58.3846 314.055 55.9438C313.094 53.503 312.613 50.9645 312.613 48.3284C312.613 46.1805 312.949 44.2766 313.622 42.6169C314.295 40.8595 315.544 39.1997 317.37 37.6376C319.292 35.9778 321.502 34.5133 324 33.2441C326.499 31.9749 328.997 30.9985 331.495 30.3151C333.994 29.6317 336.108 29.2899 337.838 29.2899C339.856 29.2899 341.201 29.7781 341.874 30.7544C342.546 31.7308 342.883 33.1953 342.883 35.1479C342.883 35.5385 342.835 36.0754 342.738 36.7589C342.642 37.3447 342.354 37.7352 341.874 37.9305C339.76 38.6139 337.501 39.5902 335.099 40.8595C332.697 42.0311 331.063 43.7396 330.198 45.9852C330.102 46.2781 329.91 46.4246 329.622 46.4246C329.141 46.4246 328.901 46.1805 328.901 45.6923C328.901 44.3254 329.718 42.8121 331.351 41.1524C332.985 39.395 334.33 38.1746 335.387 37.4911C332.601 38.2722 329.814 39.395 327.027 40.8595C324.337 42.2263 322.078 44.0325 320.253 46.2781C318.523 48.5237 317.658 51.355 317.658 54.7722C317.658 57.7988 318.283 60.679 319.532 63.4127C320.781 66.0488 321.406 68.8802 321.406 71.9068C321.406 74.3476 320.733 76.4467 319.388 78.2041C318.139 80.0592 316.169 80.9867 313.478 80.9867Z" fill="white"/>
<path d="M327.565 99C325.451 99 323.481 98.6095 321.656 97.8284C319.734 97.145 318.437 95.6317 317.764 93.2885L319.061 92.9956C319.349 94.3624 320.022 95.2899 321.079 95.7781C322.04 96.3639 323.145 96.6568 324.394 96.6568C326.701 96.6568 328.911 96.1198 331.025 95.0459C334.1 93.5814 337.127 91.0917 340.106 87.5769C343.181 84.0621 346.111 80.108 348.898 75.7145C351.781 71.321 354.423 67.0251 356.826 62.8269C359.228 58.5311 361.246 54.8698 362.88 51.8432C360.189 55.2604 357.306 58.6287 354.231 61.9482C351.156 65.2678 347.937 68.3432 344.574 71.1746C343.325 72.1509 341.883 73.1272 340.25 74.1035C338.616 75.0799 336.886 75.568 335.061 75.568C333.235 75.568 331.745 74.9334 330.592 73.6642C329.439 72.2973 328.863 70.6864 328.863 68.8314C328.863 68.0503 328.959 67.3669 329.151 66.7811C329.343 66.0976 329.583 65.4142 329.872 64.7308C331.89 60.2396 334.772 55.7485 338.52 51.2574C342.364 46.6686 346.544 42.5192 351.06 38.8092C355.673 35.0991 360.189 32.3166 364.609 30.4615C365.09 30.2663 365.57 30.071 366.051 29.8757C366.627 29.6805 367.204 29.5828 367.78 29.5828C369.126 29.5828 370.183 30.3151 370.952 31.7796C371.72 33.1464 372.153 34.4157 372.249 35.5873C372.921 34.8062 373.834 33.8299 374.987 32.6583C376.237 31.3891 377.438 30.7056 378.591 30.608V32.0725C377.342 32.1701 376.044 33.0976 374.699 34.855C373.354 36.5148 372.009 38.6627 370.663 41.2988C369.414 43.9349 368.213 46.6686 367.06 49.5C366.003 52.3314 365.042 54.9186 364.177 57.2618C363.408 59.5074 362.832 61.1672 362.447 62.2411C360.91 66.4393 359.18 70.7352 357.258 75.1287C355.432 79.4246 353.174 83.3787 350.484 86.9911C347.793 90.6035 344.574 93.4837 340.826 95.6317C337.175 97.8772 332.754 99 327.565 99ZM336.502 72.1997C337.271 72.1997 338.232 71.9068 339.385 71.321C340.634 70.6376 341.835 69.9053 342.988 69.1243C344.142 68.2456 345.006 67.6109 345.583 67.2204C348.946 64.682 352.261 61.7041 355.529 58.287C358.892 54.7722 362.015 51.0621 364.898 47.1568C367.78 43.2515 370.183 39.4438 372.105 35.7337C365.763 38.1746 359.853 41.5429 354.375 45.8388C348.898 50.1346 344.19 55.1627 340.25 60.9231C339.769 61.6065 339.145 62.5828 338.376 63.8521C337.607 65.1213 336.886 66.4393 336.214 67.8062C335.637 69.0754 335.349 70.1494 335.349 71.0281C335.349 71.8092 335.733 72.1997 336.502 72.1997Z" fill="white"/>
<path d="M397.01 76.1538C395.185 76.1538 393.647 75.568 392.398 74.3964C391.149 73.2249 390.524 71.6627 390.524 69.7101C390.524 67.6598 391.053 65.3654 392.11 62.8269C393.263 60.1908 394.272 57.9941 395.137 56.2367C393.984 57.7012 392.494 59.5562 390.668 61.8018C388.843 63.9497 386.873 66.0976 384.759 68.2456C382.645 70.3935 380.482 72.1997 378.272 73.6642C376.062 75.0311 373.948 75.7145 371.93 75.7145C369.816 75.7145 368.279 74.9334 367.318 73.3713C366.453 71.8092 366.02 70.1006 366.02 68.2456C366.02 67.074 366.165 65.9024 366.453 64.7308C367.125 62.1923 368.423 59.5562 370.345 56.8225C372.266 53.9911 374.477 51.3062 376.975 48.7677C379.57 46.1317 382.212 43.6908 384.903 41.4453C387.593 39.1997 389.996 37.3447 392.11 35.8802C393.071 35.1967 394.08 34.6109 395.137 34.1228C396.29 33.537 397.491 33.2441 398.74 33.2441C400.278 33.2441 401.671 33.6834 402.92 34.5621C404.266 35.3432 405.467 36.2707 406.524 37.3447C406.812 36.8565 407.004 36.466 407.1 36.1731C407.292 35.8802 407.677 35.7337 408.253 35.7337C408.638 35.7337 409.503 35.8802 410.848 36.1731C412.289 36.466 413.635 36.8077 414.884 37.1982C416.133 37.5888 416.758 37.9793 416.758 38.3698C416.758 38.4675 416.71 38.5163 416.613 38.5163C415.941 39.4926 415.22 40.4689 414.451 41.4453C413.683 42.4216 412.914 43.3979 412.145 44.3743C409.743 47.6938 407.389 51.1598 405.082 54.7722C402.872 58.3846 400.95 62.1435 399.317 66.0488C399.125 66.6346 398.932 67.2692 398.74 67.9527C398.548 68.5385 398.452 69.1731 398.452 69.8565C398.452 71.6139 399.317 72.4926 401.046 72.4926C402.392 72.4926 404.025 71.7604 405.947 70.2959C407.869 68.8314 409.839 67.0251 411.857 64.8772C413.971 62.7293 415.941 60.5814 417.767 58.4334C419.592 56.1879 421.13 54.3328 422.379 52.8683C423.628 51.4038 424.349 50.6716 424.541 50.6716C424.829 50.6716 424.974 50.8669 424.974 51.2574C424.974 51.4527 424.253 52.429 422.812 54.1864C421.37 55.8461 419.64 57.7988 417.622 60.0444C415.604 62.2899 413.779 64.3402 412.145 66.1953C410.512 67.9527 409.455 69.0754 408.974 69.5636C407.437 71.0281 405.611 72.4926 403.497 73.9571C401.383 75.4216 399.221 76.1538 397.01 76.1538ZM373.516 72.3461C374.284 72.3461 375.053 72.1509 375.822 71.7604C376.687 71.2722 377.407 70.8817 377.984 70.5888C381.732 68.3432 385.287 65.4142 388.65 61.8018C392.014 58.1893 395.137 54.3328 398.019 50.2322C400.902 46.1317 403.497 42.2263 405.803 38.5163C405.611 38.4186 405.275 38.3698 404.794 38.3698C403.833 38.3698 402.824 38.7115 401.767 39.395C396.29 42.2263 391.053 46.0828 386.056 50.9645C381.155 55.7485 377.071 60.8743 373.804 66.3417C373.42 66.9275 373.035 67.6598 372.651 68.5385C372.363 69.3195 372.218 70.1006 372.218 70.8817C372.218 71.858 372.651 72.3461 373.516 72.3461Z" fill="white"/>
<path d="M434.029 76.1538C432.107 76.1538 430.521 75.568 429.272 74.3964C428.119 73.2249 427.542 71.6627 427.542 69.7101C427.542 67.7574 428.119 65.3654 429.272 62.534C430.521 59.7027 432.011 56.7248 433.74 53.6006C435.47 50.4763 437.2 47.5473 438.929 44.8136C440.659 41.9822 442.052 39.6879 443.109 37.9305C442.437 38.2234 441.62 38.3698 440.659 38.3698C439.602 38.3698 438.497 38.2234 437.344 37.9305C436.191 37.5399 435.086 37.1494 434.029 36.7589C433.74 37.247 433.02 38.321 431.866 39.9808C430.809 41.5429 429.512 43.3979 427.975 45.5459C426.533 47.5961 425.044 49.5976 423.506 51.5503C421.969 53.503 420.624 55.1627 419.47 56.5296C418.413 57.7988 417.693 58.4334 417.308 58.4334C417.02 58.4334 416.876 58.287 416.876 57.9941C416.876 57.7988 417.02 57.5547 417.308 57.2618C418.365 55.895 419.422 54.5769 420.479 53.3077C421.633 52.0385 422.738 50.7204 423.795 49.3535C425.428 47.3033 426.966 45.1553 428.407 42.9098C429.848 40.6642 431.146 38.321 432.299 35.8802C431.722 35.4896 430.954 34.9038 429.993 34.1228C429.032 33.3417 428.551 32.5606 428.551 31.7796C428.551 30.7056 429.176 29.6805 430.425 28.7041C431.674 27.6302 433.068 26.7027 434.605 25.9216C436.143 25.1405 437.296 24.5547 438.064 24.1642C438.449 24.0666 439.314 23.7249 440.659 23.1391C442.1 22.4556 442.869 22.1139 442.965 22.1139C443.35 22.1139 443.542 22.3092 443.542 22.6997C443.542 22.7973 442.917 23.432 441.668 24.6035C440.515 25.6775 439.314 26.9956 438.064 28.5577C436.911 30.1198 436.335 31.682 436.335 33.2441C436.335 34.6109 436.911 35.5873 438.064 36.1731C439.218 36.7589 440.371 37.0518 441.524 37.0518C442.581 37.0518 443.446 36.8565 444.118 36.466C444.407 35.9778 444.791 35.7337 445.271 35.7337C446.04 35.7337 447.001 35.8802 448.154 36.1731C449.307 36.3683 450.364 36.7589 451.325 37.3447C452.286 37.8328 452.767 38.5651 452.767 39.5414C452.767 40.2248 452.575 40.9083 452.19 41.5917C451.806 42.1775 451.373 42.7145 450.893 43.2027C449.932 44.3743 448.491 46.1317 446.569 48.4749C444.743 50.7204 442.821 53.2101 440.803 55.9438C438.881 58.6775 437.248 61.2648 435.902 63.7056C434.557 66.1464 433.884 68.0503 433.884 69.4172C433.884 70.3935 434.221 71.2234 434.893 71.9068C435.566 72.4926 436.383 72.7855 437.344 72.7855C438.881 72.7855 440.659 72.0533 442.677 70.5888C444.695 69.0266 446.713 67.1716 448.731 65.0237C450.845 62.7781 452.815 60.5814 454.641 58.4334C456.466 56.2855 458.004 54.4793 459.253 53.0148C460.502 51.4527 461.223 50.6716 461.415 50.6716C461.799 50.6716 461.992 50.8669 461.992 51.2574C461.992 51.4527 461.511 52.1361 460.55 53.3077C459.589 54.4793 458.34 55.9438 456.803 57.7012C455.361 59.3609 453.824 61.0695 452.19 62.8269C450.653 64.4867 449.307 65.9512 448.154 67.2204C447.001 68.4896 446.232 69.2707 445.848 69.5636C444.31 71.0281 442.485 72.4926 440.371 73.9571C438.353 75.4216 436.239 76.1538 434.029 76.1538Z" fill="white"/>
<path d="M478.081 31.4867C477.12 31.4867 476.304 31.145 475.631 30.4615C475.054 29.6805 474.766 28.8018 474.766 27.8254C474.766 26.1657 475.487 24.6035 476.928 23.1391C478.466 21.5769 480.051 20.7959 481.685 20.7959C482.646 20.7959 483.366 21.1376 483.847 21.821C484.423 22.4068 484.712 23.1879 484.712 24.1642C484.712 25.7263 483.991 27.3373 482.55 28.997C481.204 30.6568 479.715 31.4867 478.081 31.4867ZM457.037 76.1538C455.211 76.1538 453.674 75.6169 452.424 74.5429C451.271 73.4689 450.695 72.0044 450.695 70.1494C450.695 68.6849 451.175 66.6834 452.136 64.145C453.097 61.6065 454.298 58.8728 455.74 55.9438C457.181 53.0148 458.574 50.3299 459.92 47.889C461.361 45.3506 462.514 43.4467 463.379 42.1775C464.148 40.9083 465.013 39.6391 465.974 38.3698C466.934 37.1006 468.232 36.466 469.865 36.466C470.346 36.466 471.211 36.6612 472.46 37.0518C473.805 37.4423 475.054 37.9305 476.207 38.5163C477.457 39.0044 478.081 39.5414 478.081 40.1272C477.024 40.5177 475.679 41.6405 474.045 43.4956C472.412 45.253 470.682 47.3521 468.856 49.7929C467.031 52.2337 465.301 54.7722 463.667 57.4083C462.13 60.0444 460.833 62.4852 459.776 64.7308C458.815 66.9763 458.334 68.6849 458.334 69.8565C458.334 71.6139 459.199 72.4926 460.929 72.4926C462.274 72.4926 463.908 71.7604 465.829 70.2959C467.751 68.8314 469.721 67.0251 471.739 64.8772C473.853 62.7293 475.823 60.5814 477.649 58.4334C479.475 56.1879 481.012 54.3328 482.261 52.8683C483.511 51.4038 484.231 50.6716 484.423 50.6716C484.808 50.6716 485 50.8669 485 51.2574C485 51.4527 484.52 52.1361 483.559 53.3077C482.598 54.4793 481.348 55.9438 479.811 57.7012C478.37 59.3609 476.832 61.0695 475.198 62.8269C473.661 64.4867 472.316 65.9512 471.163 67.2204C470.009 68.4896 469.241 69.2707 468.856 69.5636C467.319 71.0281 465.493 72.4926 463.379 73.9571C461.361 75.4216 459.247 76.1538 457.037 76.1538Z" fill="white"/>
</svg>
