<svg width="464" height="85" viewBox="0 0 464 85" fill="none" xmlns="http://www.w3.org/2000/svg">
<path d="M35.5497 25.724C37.8297 25.724 39.6177 26.396 40.9137 27.74C42.2337 29.084 42.8937 30.908 42.8937 33.212C42.8937 34.436 42.7257 35.648 42.3897 36.848H41.9577C41.9817 35.48 41.3097 34.4 39.9417 33.608C38.5737 32.792 36.7737 32.384 34.5417 32.384C31.7577 32.384 29.1657 33.032 26.7657 34.328C24.3657 35.624 22.4457 37.208 21.0057 39.08C19.5897 40.952 18.8817 42.644 18.8817 44.156C18.8817 45.836 19.6977 47.048 21.3297 47.792C22.9617 48.512 25.3857 48.932 28.6017 49.052L33.6057 49.232C36.1257 49.328 38.0937 49.652 39.5097 50.204C40.9497 50.756 41.9817 51.62 42.6057 52.796C43.2297 53.948 43.5417 55.52 43.5417 57.512C43.5417 62.144 42.5577 66.164 40.5897 69.572C38.6217 72.98 35.7537 75.608 31.9857 77.456C28.2417 79.304 23.7537 80.228 18.5217 80.228C12.5457 80.228 7.97368 78.644 4.80568 75.476C1.66168 72.332 0.0896836 67.844 0.0896836 62.012C0.0896836 56.204 1.32568 50.552 3.79768 45.056H4.48168C3.73768 47.024 3.16168 49.088 2.75368 51.248C2.34568 53.384 2.14168 55.352 2.14168 57.152C2.14168 60.104 2.81368 62.624 4.15768 64.712C5.52568 66.8 7.50568 68.384 10.0977 69.464C12.6897 70.568 15.8217 71.12 19.4937 71.12C24.3177 71.12 28.4577 70.532 31.9137 69.356C35.3937 68.204 38.0097 66.764 39.7617 65.036C41.5377 63.332 42.4257 61.664 42.4257 60.032C42.4257 59.456 42.1497 58.988 41.5977 58.628C41.0457 58.268 40.0857 57.98 38.7177 57.764C37.3497 57.524 35.4537 57.356 33.0297 57.26L27.9177 57.08C25.3737 56.984 23.3457 56.672 21.8337 56.144C20.3217 55.616 19.1937 54.752 18.4497 53.552C17.7297 52.352 17.3697 50.672 17.3697 48.512C17.3697 45.152 18.2217 41.696 19.9257 38.144C21.6537 34.568 23.9217 31.604 26.7297 29.252C29.5377 26.9 32.4777 25.724 35.5497 25.724ZM71.5446 65C70.3446 65 69.2406 64.844 68.2326 64.532C67.2246 64.196 66.2646 63.656 65.3526 62.912C64.9206 67.088 63.8286 70.784 62.0766 74C60.3246 77.24 58.1526 79.736 55.5606 81.488C52.9926 83.264 50.2926 84.152 47.4606 84.152C46.1646 84.152 44.9286 83.948 43.7526 83.54C42.6006 83.156 41.2446 82.592 39.6846 81.848C38.5326 81.296 37.5486 80.876 36.7326 80.588V80.156C40.5966 79.58 44.5926 78.284 48.7206 76.268C52.8486 74.276 56.3766 71.984 59.3046 69.392C62.2566 66.824 64.0086 64.424 64.5606 62.192C63.3126 61.016 62.0766 59.348 60.8526 57.188C59.6286 55.028 58.3686 52.256 57.0726 48.872C57.5286 48.224 58.0686 47.192 58.6926 45.776C59.3406 44.336 59.8686 42.968 60.2766 41.672H60.7446C61.8486 45.344 63.0006 48.212 64.2006 50.276C65.4006 52.34 66.7086 53.792 68.1246 54.632C69.5406 55.448 71.1846 55.856 73.0566 55.856L71.5446 65ZM107.72 3.908L79.0281 14.816L80.0001 12.044L109.448 0.631996L107.72 3.908ZM117.584 65C114.728 65 112.232 64.424 110.096 63.272C107.984 62.12 105.908 60.284 103.868 57.764C101.828 55.244 99.3561 51.596 96.4521 46.82H96.0201C96.1161 47.396 96.1641 47.828 96.1641 48.116C95.9721 52.124 95.1081 55.352 93.5721 57.8C92.0601 60.224 89.6361 62.036 86.3001 63.236C82.9641 64.412 78.4641 65 72.8001 65H70.8561C70.1841 65 69.7041 64.748 69.4161 64.244C69.1281 63.716 68.9841 62.948 68.9841 61.94C68.9841 57.884 70.1121 55.856 72.3681 55.856H74.2041C79.1001 55.856 83.1081 55.568 86.2281 54.992C89.3481 54.392 91.6041 53.624 92.9961 52.688C94.4121 51.728 95.1201 50.684 95.1201 49.556C95.1201 47.324 93.4281 44.768 90.0441 41.888C86.6841 38.984 80.8641 35.6 72.5841 31.736C73.0881 30.584 73.7241 29 74.4921 26.984C75.2601 24.968 75.8241 23.384 76.1841 22.232C76.3761 21.512 76.5441 20.984 76.6881 20.648C76.8561 20.288 77.0961 19.988 77.4081 19.748C77.7201 19.508 78.1761 19.28 78.7761 19.064L113.588 6.32L114.02 6.5C113.132 7.988 112.352 9.512 111.68 11.072C111.008 12.608 110.492 14.012 110.132 15.284L76.1841 25.292V25.76C80.9841 27.92 84.9561 30.044 88.1001 32.132C91.2441 34.196 93.7761 36.176 95.6961 38.072C97.6161 39.944 99.8841 42.404 102.5 45.452C103.892 47.06 105.032 48.368 105.92 49.376C108.056 51.752 110.108 53.432 112.076 54.416C114.044 55.376 116.36 55.856 119.024 55.856L117.584 65ZM171.652 65C168.748 65 166.528 64.304 164.992 62.912C163.48 61.52 162.724 59.528 162.724 56.936C162.724 56.648 162.748 56.216 162.796 55.64H162.4C161.968 58.808 161.044 61.16 159.628 62.696C158.236 64.232 156.316 65 153.868 65C151.732 65 150.04 64.316 148.792 62.948C147.568 61.556 146.956 59.588 146.956 57.044C146.956 56.564 146.968 56.204 146.992 55.964H146.56C145.984 58.94 144.796 61.196 142.996 62.732C141.196 64.244 139 65 136.408 65C134.152 65 132.388 64.34 131.116 63.02C129.844 61.7 129.208 59.756 129.208 57.188C129.208 56.66 129.22 56.252 129.244 55.964H128.812C128.092 59.012 126.736 61.28 124.744 62.768C122.776 64.256 120.136 65 116.824 65C115.576 65 114.952 63.98 114.952 61.94C114.952 59.948 115.252 58.436 115.852 57.404C116.428 56.372 117.256 55.856 118.336 55.856C120.928 55.856 123.028 55.544 124.636 54.92C126.268 54.296 127.552 53.252 128.488 51.788C129.448 50.324 130.168 48.296 130.648 45.704H131.404C131.332 46.472 131.188 47.564 130.972 48.98C130.78 50.372 130.564 51.776 130.324 53.192C131.068 54.056 132.064 54.716 133.312 55.172C134.56 55.628 136 55.856 137.632 55.856C139.84 55.856 141.64 55.532 143.032 54.884C144.424 54.236 145.516 53.18 146.308 51.716C147.124 50.252 147.724 48.248 148.108 45.704H148.864C148.792 46.424 148.66 47.456 148.468 48.8C148.276 50.144 148.06 51.512 147.82 52.904C148.516 53.864 149.44 54.596 150.592 55.1C151.744 55.604 153.064 55.856 154.552 55.856C156.52 55.856 158.176 55.424 159.52 54.56C160.888 53.696 161.764 52.628 162.148 51.356C162.148 50.516 162.016 49.34 161.752 47.828C161.488 46.292 161.212 44.984 160.924 43.904C161.332 43.76 161.764 43.556 162.22 43.292C162.676 43.004 163.06 42.728 163.372 42.464L163.48 49.124C163.504 51.212 164.272 52.856 165.784 54.056C167.32 55.256 169.78 55.856 173.164 55.856L171.652 65ZM170.947 65C170.275 65 169.795 64.748 169.507 64.244C169.219 63.716 169.075 62.948 169.075 61.94C169.075 57.884 170.203 55.856 172.459 55.856H187.723L186.211 65H170.947ZM185.485 65C184.813 65 184.333 64.748 184.045 64.244C183.757 63.716 183.613 62.948 183.613 61.94C183.613 57.884 184.741 55.856 186.997 55.856H202.261L200.749 65H185.485ZM200.023 65C199.351 65 198.871 64.748 198.583 64.244C198.295 63.716 198.151 62.948 198.151 61.94C198.151 57.884 199.279 55.856 201.535 55.856H216.799L215.287 65H200.023ZM214.561 65C213.889 65 213.409 64.748 213.121 64.244C212.833 63.716 212.689 62.948 212.689 61.94C212.689 57.884 213.817 55.856 216.073 55.856H231.337L229.825 65H214.561ZM229.099 65C228.427 65 227.947 64.748 227.659 64.244C227.371 63.716 227.227 62.948 227.227 61.94C227.227 57.884 228.355 55.856 230.611 55.856H245.875L244.363 65H229.099ZM243.636 65C242.964 65 242.484 64.748 242.196 64.244C241.908 63.716 241.764 62.948 241.764 61.94C241.764 57.884 242.892 55.856 245.148 55.856H260.412L258.9 65H243.636ZM258.174 65C257.502 65 257.022 64.748 256.734 64.244C256.446 63.716 256.302 62.948 256.302 61.94C256.302 57.884 257.43 55.856 259.686 55.856H274.95L273.438 65H258.174ZM272.712 65C272.04 65 271.56 64.748 271.272 64.244C270.984 63.716 270.84 62.948 270.84 61.94C270.84 57.884 271.968 55.856 274.224 55.856H289.488L287.976 65H272.712ZM287.25 65C286.578 65 286.098 64.748 285.81 64.244C285.522 63.716 285.378 62.948 285.378 61.94C285.378 57.884 286.506 55.856 288.762 55.856H304.026L302.514 65H287.25ZM321.696 29.216C324.48 29.216 326.64 29.924 328.176 31.34C329.736 32.756 330.516 34.628 330.516 36.956C330.516 38.108 330.348 39.236 330.012 40.34H329.58C329.58 38.972 328.812 37.892 327.276 37.1C325.764 36.284 323.688 35.876 321.048 35.876C318.912 35.876 316.824 36.272 314.784 37.064C312.744 37.832 311.076 38.888 309.78 40.232C308.508 41.576 307.872 43.04 307.872 44.624C307.872 46.136 308.412 47.54 309.492 48.836C310.572 50.108 312.084 51.128 314.028 51.896C315.972 52.64 318.18 53.012 320.652 53.012C323.628 53.012 326.664 52.772 329.76 52.292C332.88 51.788 335.64 51.104 338.04 50.24L338.112 50.636C337.488 51.26 336.6 52.472 335.448 54.272C334.32 56.048 333.432 57.62 332.784 58.988C330.24 59.564 326.82 60.428 322.524 61.58C319.596 62.372 317.172 62.996 315.252 63.452C313.332 63.908 311.244 64.28 308.988 64.568C306.756 64.856 304.356 65 301.788 65C301.116 65 300.636 64.748 300.348 64.244C300.06 63.716 299.916 62.948 299.916 61.94C299.916 57.884 301.044 55.856 303.3 55.856C305.148 55.856 307.368 55.736 309.96 55.496C308.808 54.632 307.932 53.516 307.332 52.148C306.732 50.756 306.432 49.184 306.432 47.432C306.432 44.144 307.14 41.108 308.556 38.324C309.972 35.516 311.844 33.296 314.172 31.664C316.524 30.032 319.032 29.216 321.696 29.216ZM373.91 65C370.742 65 368.222 64.544 366.35 63.632C364.502 62.696 363.134 61.148 362.246 58.988C361.382 56.804 360.902 53.792 360.806 49.952C360.638 41.312 360.446 34.76 360.23 30.296C360.038 25.832 359.798 22.46 359.51 20.18C359.246 17.876 358.838 15.308 358.286 12.476C359.222 11.54 360.242 10.328 361.346 8.84C362.474 7.352 363.434 5.96 364.226 4.664H364.658C364.658 5.912 364.718 7.532 364.838 9.524C365.006 13.388 365.09 16.532 365.09 18.956C365.09 21.812 365.018 26.24 364.874 32.24C364.73 38.288 364.658 42.776 364.658 45.704C364.658 48.152 365.006 50.12 365.702 51.608C366.422 53.072 367.562 54.152 369.122 54.848C370.706 55.52 372.818 55.856 375.458 55.856L373.91 65ZM397.329 42.968C395.241 42.968 393.393 43.544 391.785 44.696C390.201 45.824 388.893 47.468 387.861 49.628C388.557 50.948 389.769 52.196 391.497 53.372C393.225 54.524 395.157 55.448 397.293 56.144C399.429 56.816 401.409 57.152 403.233 57.152C405.009 57.152 406.341 56.864 407.229 56.288C408.117 55.712 408.561 54.872 408.561 53.768C408.561 52.04 408.069 50.348 407.085 48.692C406.125 47.012 404.781 45.644 403.053 44.588C401.349 43.508 399.441 42.968 397.329 42.968ZM420.225 65C417.393 65 415.089 64.112 413.313 62.336C411.561 60.536 410.457 57.86 410.001 54.308H409.569C409.449 58.268 408.729 61.256 407.409 63.272C406.089 65.288 404.289 66.296 402.009 66.296C399.321 66.296 396.777 65.864 394.377 65C391.977 64.112 389.997 62.912 388.437 61.4C386.877 59.888 385.953 58.22 385.665 56.396C385.617 55.868 385.593 55.448 385.593 55.136C385.593 53.984 385.713 52.688 385.953 51.248L385.521 51.104C385.473 51.248 385.233 51.956 384.801 53.228C384.009 55.628 383.217 57.62 382.425 59.204C381.657 60.764 380.517 62.12 379.005 63.272C377.517 64.424 375.597 65 373.245 65C371.997 65 371.373 63.98 371.373 61.94C371.373 59.948 371.673 58.436 372.273 57.404C372.849 56.372 373.677 55.856 374.757 55.856C376.605 55.856 378.177 55.628 379.473 55.172C380.769 54.716 381.897 53.924 382.857 52.796C383.817 51.668 384.681 50.096 385.449 48.08L386.853 49.196C388.269 46.076 389.601 43.592 390.849 41.744C392.121 39.872 393.441 38.504 394.809 37.64C396.177 36.752 397.701 36.308 399.381 36.308C400.845 36.308 402.177 36.632 403.377 37.28C404.601 37.904 405.777 38.984 406.905 40.52C408.057 42.056 409.221 44.144 410.397 46.784C411.333 49.064 412.317 50.864 413.349 52.184C414.381 53.48 415.569 54.416 416.913 54.992C418.257 55.568 419.865 55.856 421.737 55.856L420.225 65ZM446.962 65C443.77 65 441.286 64.196 439.51 62.588C437.758 60.98 436.882 58.244 436.882 54.38C436.882 53.876 436.93 52.976 437.026 51.68H436.594C436.378 54.896 435.646 57.476 434.398 59.42C433.174 61.364 431.35 62.78 428.926 63.668C426.502 64.556 423.358 65 419.494 65C418.822 65 418.342 64.748 418.054 64.244C417.766 63.716 417.622 62.948 417.622 61.94C417.622 57.884 418.75 55.856 421.006 55.856C425.422 55.856 428.734 55.508 430.942 54.812C433.174 54.092 434.782 52.88 435.766 51.176C436.75 49.472 437.494 46.88 437.998 43.4H438.682V47.108C438.682 49.172 438.982 50.84 439.582 52.112C440.182 53.384 441.19 54.332 442.606 54.956C444.022 55.556 445.978 55.856 448.474 55.856L446.962 65ZM413.482 79.256C413.818 78.68 414.238 77.72 414.742 76.376C415.222 75.056 415.534 74.06 415.678 73.388C418.222 73.22 420.754 73.088 423.274 72.992C425.818 72.896 427.738 72.848 429.034 72.848C431.098 72.848 432.61 73.052 433.57 73.46C434.554 73.892 435.046 74.636 435.046 75.692C435.046 76.148 434.866 76.964 434.506 78.14C434.194 79.148 433.978 79.988 433.858 80.66H433.426C433.426 79.94 433.006 79.436 432.166 79.148C431.35 78.86 429.946 78.716 427.954 78.716C426.61 78.716 424.318 78.764 421.078 78.86C417.862 78.956 415.33 79.088 413.482 79.256ZM463.906 50.384C463.906 53.696 463.294 56.432 462.07 58.592C460.87 60.728 458.974 62.336 456.382 63.416C453.79 64.472 450.418 65 446.266 65C445.594 65 445.114 64.748 444.826 64.244C444.538 63.716 444.394 62.948 444.394 61.94C444.394 57.884 445.522 55.856 447.778 55.856C450.754 55.856 453.382 55.676 455.662 55.316C457.966 54.956 459.742 54.464 460.99 53.84C462.238 53.216 462.862 52.532 462.862 51.788C462.862 51.02 462.466 49.988 461.674 48.692C460.906 47.396 459.922 46.052 458.722 44.66C457.522 43.244 456.334 42.032 455.158 41.024C455.734 40.304 456.406 39.152 457.174 37.568C457.966 35.96 458.602 34.484 459.082 33.14H459.442C459.514 33.308 459.742 33.836 460.126 34.724C461.182 37.1 462.07 39.524 462.79 41.996C463.534 44.444 463.906 47.24 463.906 50.384ZM455.734 27.38C455.158 26.636 454.294 25.796 453.142 24.86C452.014 23.924 451.042 23.264 450.226 22.88V22.448L454.618 17.012C455.698 17.516 456.826 18.284 458.002 19.316C459.178 20.324 460.018 21.272 460.522 22.16L455.734 27.38Z" fill="#242528"/>
</svg>
