<svg width="20" height="20" viewBox="0 0 20 20" fill="none" xmlns="http://www.w3.org/2000/svg">
<g clip-path="url(#clip0_113_160)">
<path d="M18.3327 8.33366V15.0003C18.3327 16.8413 16.8403 18.3337 14.9993 18.3337H4.99935C3.1584 18.3337 1.66602 16.8413 1.66602 15.0003V5.00033C1.66602 3.15938 3.1584 1.66699 4.99935 1.66699H11.666M4.16602 10.0003H4.99935C5.91982 10.0003 6.66602 9.25413 6.66602 8.33366V7.50033C6.66602 6.57985 7.41221 5.83366 8.33268 5.83366C9.25316 5.83366 9.99935 6.57985 9.99935 7.50033V12.5003C9.99935 13.4208 10.7455 14.167 11.666 14.167C12.5865 14.167 13.3327 13.4208 13.3327 12.5003V11.667C13.3327 10.7465 14.0789 10.0003 14.9993 10.0003H15.8327M18.3327 3.75033C18.3327 4.90092 17.3999 5.83366 16.2493 5.83366C15.0988 5.83366 14.166 4.90092 14.166 3.75033C14.166 2.59973 15.0988 1.66699 16.2493 1.66699C17.3999 1.66699 18.3327 2.59973 18.3327 3.75033Z" stroke="#0A0503" stroke-width="1.5" stroke-linecap="round"/>
</g>
<defs>
<clipPath id="clip0_113_160">
<rect width="20" height="20" fill="white"/>
</clipPath>
</defs>
</svg>
