<svg width="25" height="25" viewBox="0 0 25 25" fill="none" xmlns="http://www.w3.org/2000/svg">
<path d="M19.5 12.5H21.5C22.0523 12.5 22.5 12.0523 22.5 11.5V9.5M21.5 11.5C13.5585 5.10864 9.44212 3.38706 2.5 2.5M6.5 10.5L6.5 20.5C6.5 21.6046 5.60457 22.5 4.5 22.5C3.39543 22.5 2.5 21.6046 2.5 20.5L2.5 10.5C2.5 9.39543 3.39543 8.5 4.5 8.5C5.60457 8.5 6.5 9.39543 6.5 10.5ZM22.5 18.5V20.5C22.5 21.6046 21.6046 22.5 20.5 22.5C19.3954 22.5 18.5 21.6046 18.5 20.5V18.5C18.5 17.3954 19.3954 16.5 20.5 16.5C21.6046 16.5 22.5 17.3954 22.5 18.5ZM14.5 14.5V20.5C14.5 21.6046 13.6046 22.5 12.5 22.5C11.3954 22.5 10.5 21.6046 10.5 20.5V14.5C10.5 13.3954 11.3954 12.5 12.5 12.5C13.6046 12.5 14.5 13.3954 14.5 14.5Z" stroke="#E5E6E8" stroke-width="1.5" stroke-linecap="round" stroke-linejoin="round"/>
</svg>
