<svg width="20" height="20" viewBox="0 0 20 20" fill="none" xmlns="http://www.w3.org/2000/svg">
<g clip-path="url(#clip0_258_5808)">
<path d="M10.0003 9.99984H9.25033C9.25033 10.3227 9.4569 10.6093 9.76315 10.7114L10.0003 9.99984ZM10.7503 5.83317C10.7503 5.41896 10.4145 5.08317 10.0003 5.08317C9.58611 5.08317 9.25033 5.41896 9.25033 5.83317H10.7503ZM12.2632 11.5447C12.6561 11.6757 13.0809 11.4633 13.2118 11.0703C13.3428 10.6774 13.1305 10.2526 12.7375 10.1217L12.2632 11.5447ZM10.7503 9.99984V5.83317H9.25033V9.99984H10.7503ZM9.76315 10.7114L12.2632 11.5447L12.7375 10.1217L10.2375 9.28833L9.76315 10.7114ZM17.5837 9.99984C17.5837 14.188 14.1885 17.5832 10.0003 17.5832V19.0832C15.0169 19.0832 19.0837 15.0164 19.0837 9.99984H17.5837ZM10.0003 17.5832C5.81217 17.5832 2.41699 14.188 2.41699 9.99984H0.916992C0.916992 15.0164 4.98374 19.0832 10.0003 19.0832V17.5832ZM2.41699 9.99984C2.41699 5.81168 5.81217 2.4165 10.0003 2.4165V0.916504C4.98374 0.916504 0.916992 4.98325 0.916992 9.99984H2.41699ZM10.0003 2.4165C14.1885 2.4165 17.5837 5.81168 17.5837 9.99984H19.0837C19.0837 4.98325 15.0169 0.916504 10.0003 0.916504V2.4165Z" fill="#6D727D"/>
</g>
<defs>
<clipPath id="clip0_258_5808">
<rect width="20" height="20" fill="white"/>
</clipPath>
</defs>
</svg>
