<svg width="25" height="25" viewBox="0 0 25 25" fill="none" xmlns="http://www.w3.org/2000/svg">
<path d="M20.5004 18.5H14.5004M20.5004 18.5C21.6049 18.5 22.5004 19.3954 22.5004 20.5C22.5004 21.6046 21.6049 22.5 20.5004 22.5H14.5004C13.3958 22.5 12.5004 21.6046 12.5004 20.5C12.5004 19.3954 13.3958 18.5 14.5004 18.5M20.5004 18.5C21.6049 18.5 22.5004 17.6046 22.5004 16.5C22.5004 15.3954 21.6049 14.5 20.5004 14.5H19.8337M14.5004 18.5C13.3958 18.5 12.5004 17.6046 12.5004 16.5C12.5004 15.3954 13.3958 14.5 14.5004 14.5H19.8337M14.1758 22.5H10.8249C6.72957 22.5 3.83775 18.4878 5.13281 14.6026L6.13281 11.6026C6.9495 9.15258 9.24233 7.5 11.8249 7.5H13.1758C15.7584 7.5 18.0512 9.15258 18.8679 11.6026L19.8337 14.5" stroke="#E5E6E8" stroke-width="1.5" stroke-linejoin="round"/>
<path d="M14.5859 7.5L10.4141 7.5L9.01303 5.89296C7.63959 4.31763 9.24185 1.96298 11.2471 2.60985L12.1748 2.90914C12.3861 2.97728 12.6139 2.97728 12.8252 2.90914L13.7529 2.60985C15.7582 1.96298 17.3604 4.31763 15.987 5.89296L14.5859 7.5Z" stroke="#E5E6E8" stroke-width="1.5" stroke-linejoin="round"/>
</svg>
