<svg width="25" height="25" viewBox="0 0 25 25" fill="none" xmlns="http://www.w3.org/2000/svg">
<path d="M12.5 10.8748V21.9575M10.5 6.03513C11.0883 5.69479 11.7714 5.5 12.5 5.5C13.2286 5.5 13.9117 5.69479 14.5 6.03513M8.5 3.75469C9.63383 2.96381 11.0128 2.5 12.5 2.5C13.9872 2.5 15.3662 2.96381 16.5 3.75469M6.09546 8.50877C7.87016 8.70374 10.2545 9.22825 11.9535 10.3857C12.28 10.6081 12.72 10.6081 13.0465 10.3857C14.7455 9.22825 17.1298 8.70374 18.9045 8.50877C19.7829 8.41227 20.5 9.12535 20.5 10.0051V18.7666C20.5 19.6464 19.7829 20.3598 18.9045 20.4563C17.1298 20.6512 14.7455 21.1757 13.0465 22.3332C12.72 22.5556 12.28 22.5556 11.9535 22.3332C10.2545 21.1757 7.87016 20.6512 6.09546 20.4563C5.21714 20.3598 4.5 19.6464 4.5 18.7666V10.0051C4.5 9.12535 5.21714 8.41227 6.09546 8.50877Z" stroke="#E5E6E8" stroke-width="1.5" stroke-linecap="round"/>
</svg>
