<svg width="131" height="95" viewBox="0 0 131 95" fill="none" xmlns="http://www.w3.org/2000/svg">
<path fill-rule="evenodd" clip-rule="evenodd" d="M57.3067 65.0677C55.5996 68.1974 55.0863 71.8152 56.2745 75.8766C59.9509 88.4399 69.7891 93.5222 81.4515 94.2084C98.4806 95.2098 119.437 86.6966 129.853 79.0872C130.347 78.7274 130.453 78.0355 130.093 77.5446C129.733 77.0509 129.041 76.9422 128.547 77.302C118.439 84.6883 98.1069 92.9727 81.5798 92.002C70.8714 91.3716 61.7724 86.7942 58.3973 75.2545C57.3903 71.8208 57.8338 68.7692 59.2703 66.1193C61.0165 67.0314 62.7654 67.8822 64.5144 68.6689C69.3428 70.839 82.7485 74.083 92.6062 72.8724C99.6773 72.0021 104.919 68.8473 104.734 61.952C104.631 58.1194 102.244 55.3468 98.4444 53.6509C93.2227 51.3162 85.2227 51.054 77.5575 52.6969C71.1754 54.0637 65.036 56.7414 60.9161 60.5406C60.0123 61.3774 59.2006 62.2645 58.5032 63.2045C34.5257 50.0944 12.1047 25.7403 2.64871 0.730705C2.43113 0.161674 1.79519 -0.128365 1.22337 0.0892028C0.651548 0.303986 0.364226 0.94278 0.579008 1.51182C10.1912 26.9286 32.9386 51.6871 57.3067 65.0677ZM60.4865 64.2617C62.1295 65.1152 63.7752 65.9129 65.4209 66.6521C70.0485 68.7302 82.8908 71.8376 92.3356 70.6773C98.132 69.966 102.676 67.6618 102.525 62.0106C102.444 59.0427 100.483 56.9842 97.5435 55.6676C94.3078 54.2227 89.9256 53.6704 85.2534 53.9019C78.16 54.2533 70.4 56.4206 64.9077 60.1919C63.1671 61.3857 61.6581 62.7443 60.4865 64.2617Z" fill="white"/>
<path fill-rule="evenodd" clip-rule="evenodd" d="M38.8316 20.4929C25.8331 18.267 11.9922 9.77052 2.40785 0.612987C1.96713 0.191791 1.26697 0.208496 0.845774 0.649218C0.424577 1.08994 0.438557 1.7901 0.879279 2.2113C10.7621 11.6561 25.0576 20.3758 38.4578 22.6714C39.0575 22.7746 39.6294 22.3701 39.7326 21.7676C39.8358 21.1679 39.4313 20.5961 38.8316 20.4929Z" fill="white"/>
<path fill-rule="evenodd" clip-rule="evenodd" d="M0.646651 2.35372C6.09152 11.8878 6.84468 26.5126 4.08598 37.1736C3.93256 37.7649 4.28684 38.3702 4.87819 38.5209C5.46954 38.6743 6.072 38.3201 6.22541 37.7287C9.11521 26.5601 8.27006 11.2464 2.56578 1.25758C2.26453 0.7276 1.58666 0.543373 1.05668 0.844624C0.526699 1.14867 0.342608 1.82374 0.646651 2.35372Z" fill="white"/>
</svg>
